<?xml version="1.0" encoding="iso-8859-1"?>
<!-- Generator: Adobe Illustrator 19.2.1, SVG Export Plug-In . SVG Version: 6.00 Build 0)  -->
<svg version="1.1" baseProfile="tiny" id="Layer_1" xmlns="http://www.w3.org/2000/svg" xmlns:xlink="http://www.w3.org/1999/xlink"
	 x="0px" y="0px" viewBox="0 0 310 241" xml:space="preserve">
<path fill="#FFFFFF" d="M215.417,48c-0.222,0-0.443,0.007-0.665,0.008C203.299,19.856,175.684,0,143.417,0
	C109.909,0,81.415,21.41,70.83,51.291C31.556,54.799,0.765,87.778,0.765,127.965c0,18.873,6.801,36.151,18.071,49.542
	c-0.919,3.85-1.419,7.862-1.419,11.993c0,28.443,23.057,51.5,51.5,51.5c14.082,0,26.837-5.657,36.134-14.815
	c9.301,7.39,21.063,11.815,33.866,11.815c13.078,0,25.077-4.611,34.469-12.289c12.645,6.347,26.919,9.926,42.031,9.926
	c51.814,0,93.818-42.004,93.818-93.818S267.231,48,215.417,48z"/>
<g>
</g>
<g>
</g>
<g>
</g>
<g>
</g>
<g>
</g>
<g>
</g>
<g>
</g>
<g>
</g>
<g>
</g>
<g>
</g>
<g>
</g>
<g>
</g>
<g>
</g>
<g>
</g>
<g>
</g>
</svg>
