<?xml version="1.0" encoding="iso-8859-1"?>
<!-- Generator: Adobe Illustrator 19.2.1, SVG Export Plug-In . SVG Version: 6.00 Build 0)  -->
<svg version="1.1" baseProfile="tiny" id="Layer_1" xmlns="http://www.w3.org/2000/svg" xmlns:xlink="http://www.w3.org/1999/xlink"
	 x="0px" y="0px" viewBox="0 0 2200 1836" xml:space="preserve">
<path fill="#FAAE40" d="M1108.314,1797.644c-202.118-37.708-273.239-495.882-273.239-495.882h-41.612h-41.612
	c0,0-71.121,458.175-273.239,495.882H1108.314z"/>
<path fill="#F6914F" d="M1108.314,1797.644c-202.118-37.708-273.239-495.882-273.239-495.882h-41.612l-0.539,495.882H1108.314z"/>
<path fill="#FFFFFF" d="M2189.535,1796.225c0-22.149-18.193-40.105-40.638-40.105c-12.78,0-24.168,5.834-31.618,14.937
	c-5.02-5.406-11.877-9.119-19.608-10.158c0.528-2.92,0.82-5.921,0.82-8.991c0-28.056-23.045-50.798-51.474-50.798
	c-0.238,0-0.475,0.014-0.713,0.018c0.525-3.744,0.817-7.562,0.817-11.448c0-45.762-37.591-82.859-83.962-82.859
	c-36.642,0-67.781,23.171-79.243,55.469c-11.054-12.646-27.397-20.663-45.647-20.663c-29.217,0-53.572,20.515-59.096,47.743
	c-10.776-13.31-27.354-21.847-45.96-21.847c-26.793,0-49.386,17.689-56.481,41.874c-13.937-12.357-32.36-19.882-52.571-19.882
	c-26.779,0-50.421,13.212-64.636,33.378c-17.489-20.406-43.609-33.378-72.812-33.378c-29.902,0-56.576,13.595-74.056,34.852
	c-6.52-2.809-13.713-4.377-21.283-4.377c-5.002,0-9.837,0.696-14.427,1.968c-12.838-19.52-35.103-32.442-60.441-32.442
	c-28.74,0-53.542,16.618-65.096,40.644c-13.858-6.514-29.363-10.169-45.735-10.169c-10.119,0-19.894,1.422-29.167,4.024
	c-12.597-20.667-35.539-34.498-61.758-34.498c-9.793,0-19.124,1.94-27.633,5.435c0.116-1.743,0.184-3.498,0.184-5.27
	c0-45.762-37.591-82.859-83.961-82.859c-36.642,0-67.781,23.171-79.244,55.469c-11.053-12.646-27.397-20.663-45.647-20.663
	c-29.216,0-53.572,20.515-59.095,47.743c-10.777-13.31-27.354-21.847-45.96-21.847c-26.793,0-49.386,17.689-56.481,41.874
	c-13.937-12.357-32.361-19.882-52.571-19.882c-26.78,0-50.421,13.212-64.636,33.378c-17.489-20.406-43.609-33.378-72.812-33.378
	c-29.902,0-56.576,13.595-74.055,34.852c-6.52-2.809-13.713-4.377-21.283-4.377c-5.002,0-9.837,0.696-14.427,1.968
	c-12.838-19.52-35.103-32.442-60.441-32.442c-28.74,0-53.542,16.618-65.096,40.644c-13.858-6.514-29.363-10.169-45.736-10.169
	c-10.119,0-19.894,1.422-29.167,4.024c-12.597-20.667-35.538-34.498-61.758-34.498c-29.551,0-54.932,17.57-66.036,42.697
	c-7.508-4.466-16.271-7.082-25.676-7.082c-27.545,0-49.874,22.036-49.874,49.219c0,17.508,9.291,32.841,23.244,41.566l-0.026,0.03
	L62.942,1835h2097.954c-0.047-0.14-0.08-0.279-0.13-0.418C2177.417,1829.569,2189.535,1814.298,2189.535,1796.225z"/>
<g>
	<path fill="#FFFFFF" d="M945.194,976.355h-0.404c-3.972,0-7.221,3.207-7.221,7.126v144.417l-76.155-74.212
		c0-201.761,0-734.708,0-897.687h-0.315c-2.929-9.643-47.97-156.834-68.766-156.834c-27.941,0-78.85,156.834-78.85,156.834l0,0
		l-0.21,902.38l-63.916,62.284V983.481c0-3.919-3.249-7.126-7.221-7.126h-0.404c-3.972,0-7.221,3.207-7.221,7.126v502.989
		c0,3.919,3.25,7.126,7.221,7.126h0.404c3.972,0,7.221-3.207,7.221-7.126v-33.434l69.358-67.589v-66.777h16.305v15.263h16.018
		v-15.263h14.06v15.263h16.017v-15.263h14.06v15.263h16.018v-15.263h8.588h5.472v15.263h16.018v-15.263h19.515v66.777l76.782,74.823
		v26.2c0,3.919,3.249,7.126,7.221,7.126h0.404c3.971,0,7.22-3.207,7.22-7.126V983.481
		C952.415,979.562,949.165,976.355,945.194,976.355z"/>
	<path fill="#EBEBEB" d="M945.194,976.355h-0.404c-3.972,0-7.221,3.207-7.221,7.126v144.417l-76.155-74.212
		c0-201.761,0-732.708,0-897.687h-0.12c-2.551-8.409-46.552-152.47-67.831-156.834v157h0V1318.67h1.713v15.263h16.018v-15.263h8.588
		h5.472v15.263h16.018v-15.263h19.515v66.777l76.782,74.823v26.2c0,3.919,3.249,7.126,7.221,7.126h0.404
		c3.971,0,7.22-3.207,7.22-7.126V983.481C952.415,979.562,949.165,976.355,945.194,976.355z"/>
</g>
<g>
</g>
<g>
</g>
<g>
</g>
<g>
</g>
<g>
</g>
<g>
</g>
<g>
</g>
<g>
</g>
<g>
</g>
<g>
</g>
<g>
</g>
<g>
</g>
<g>
</g>
<g>
</g>
<g>
</g>
</svg>
