<?xml version="1.0" encoding="utf-8"?>
<svg version="1.1" id="_x38_00px" xmlns="http://www.w3.org/2000/svg" xmlns:xlink="http://www.w3.org/1999/xlink" x="0px" y="0px"
	 viewBox="414.9 41.8 568.7 115.7" style="enable-background:new 414.9 41.8 568.7 115.7;" xml:space="preserve">
<style type="text/css">
	.st0{fill:url(#SVGID_1_);}
	.st1{fill:url(#SVGID_2_);}
	.st2{fill:#FCB040;}
	.st3{fill:#F57B20;}
	.st4{fill:#616163;}
</style>
<g>
	<linearGradient id="SVGID_1_" gradientUnits="userSpaceOnUse" x1="526.9218" y1="106.3478" x2="460.7585" y2="50.8302" gradientTransform="matrix(1 0 0 -1 0 198.56)">
		<stop  offset="0" style="stop-color:#F57B20"/>
		<stop  offset="1" style="stop-color:#FCB040"/>
	</linearGradient>
	<path class="st0" d="M522.4,107.8c-22.7,0-41,18.2-41.5,40.7l0,0c0.3,2.9-1,5.8-3.6,7.6l0,0l0,0c-2.5,1.7-5.7,1.8-8.4,0.4l0,0
		c-2.7-1.4-4.3-4.2-4.3-7.2l0,0c0-32,25.9-57.9,57.9-57.9l0,0c4.5,0,8.2,3.7,8.2,8.2l0,0C530.6,104.1,526.9,107.8,522.4,107.8
		L522.4,107.8z"/>
		<linearGradient id="SVGID_2_" gradientUnits="userSpaceOnUse" x1="483.702" y1="149.2141" x2="422.4511" y2="87.9632" gradientTransform="matrix(1 0 0 -1 0 198.56)">
		<stop  offset="0" style="stop-color:#F57B20"/>
		<stop  offset="1" style="stop-color:#FCB040"/>
	</linearGradient>
	<path class="st1" d="M423.1,107.8c-4.5,0-8.2-3.7-8.2-8.2l0,0c0-4.5,3.7-8.2,8.2-8.2l0,0c22.7,0,41-18.2,41.5-40.7l0,0
		c-0.2-2.6,0.8-5.2,2.9-7l0,0l0,0c2.4-2,5.8-2.5,8.7-1.1l0,0c2.9,1.3,4.7,4.2,4.7,7.4l0,0C481,81.9,455.1,107.8,423.1,107.8
		L423.1,107.8z"/>
	<path class="st2" d="M464.5,50c0-4.5,3.7-8.2,8.2-8.2l0,0c4.5,0,8.2,3.7,8.2,8.2l0,0c0,22.7,18.2,41,40.7,41.5l0,0
		c2.6-0.2,5.2,0.8,7,2.9l0,0l0,0c2.1,2.4,2.5,5.8,1.2,8.7l0,0c-1.3,2.9-4.2,4.7-7.4,4.7l0,0C490.4,107.8,464.5,81.9,464.5,50
		L464.5,50z"/>
	<path class="st3" d="M481,149.3c0,4.5-3.7,8.2-8.2,8.2l0,0c-4.5,0-8.2-3.7-8.2-8.2l0,0c0-22.7-18.2-41.1-40.7-41.5l0,0
		c-2.6,0.2-5.2-0.8-7-2.9l0,0l0,0c-2-2.4-2.5-5.8-1.2-8.7l0,0c1.3-2.9,4.2-4.7,7.4-4.7l0,0C455.1,91.4,481,117.3,481,149.3
		L481,149.3z"/>
	<path class="st4" d="M578.2,126c0,2.3-1,3.6-2.8,3.6s-2.8-1.2-2.8-3.6V79H562c-1.8,0-2.9-1.2-2.9-2.6c0-1.4,1.2-2.6,2.9-2.6h27
		c1.8,0,2.9,1.2,2.9,2.6c0,1.4-1.2,2.6-2.9,2.6h-10.7V126z M618.3,126c0,2.3-1,3.6-2.8,3.6c-1.8,0-2.8-1.2-2.8-3.6V76.8
		c0-1.9,0.9-2.9,3.5-2.9h12.2c10.9,0,16.7,7.3,16.7,15c0,8.8-5.9,15.6-14.7,15.6h-5.1l19.1,20.4c0.9,0.9,1.1,1.3,1.1,2.4
		c0,1.4-1.2,2.3-2.5,2.3c-0.9,0-1.6-0.3-2.5-1.2l-22.1-23.7L618.3,126L618.3,126z M618.3,99.8h9.7c7.3,0,11.5-3.4,11.5-9.9
		c0-7.2-4-10.9-11.5-10.9h-9.7V99.8z M670.7,127c-0.7,1.4-1.2,2.6-3.1,2.6c-1.6,0-2.5-1-2.5-2.2c0-0.6,0.2-1.6,0.5-2.3l17.8-47.6
		c0.7-1.8,1.6-4,4.3-4c2.8,0,3.6,2.2,4.3,4l17.8,47.6c0.3,0.8,0.5,1.7,0.5,2.3c0,1.2-0.9,2.2-2.5,2.2c-1.9,0-2.6-1.2-3.1-2.6
		l-3.6-9.9h-26.8L670.7,127z M687.8,80.7h-0.2l-11.5,31.3h23.1L687.8,80.7z M736.2,126c0,2.3-1,3.6-2.8,3.6s-2.8-1.2-2.8-3.6V77
		c0-2.3,1-3.6,2.8-3.6s2.8,1.2,2.8,3.6v20.6l24.7-22.3c1.2-1.2,2.2-1.9,3.4-1.9c1.6,0,2.4,1.2,2.4,2.3c0,0.9-0.2,1.5-1.2,2.4
		l-24.2,21.7l26.1,24.8c0.9,0.8,1.2,1.8,1.2,2.5c0,1.2-0.9,2.4-2.5,2.4c-1.2,0-2.2-0.8-3.3-1.9l-26.6-25.4L736.2,126L736.2,126z
		 M788.8,123c0-1.5,1.2-2.7,2.6-2.7c0.6,0,2,0.8,2.6,1.3c0.6,0.5,5.2,2.9,9.2,2.9c7.8,0,12.7-6.2,12.7-12c0-13.3-26.2-8.1-26.2-24.9
		c0-8.9,7.6-13.9,16-14.1c6,0,12.6,3.4,12.6,6.1c0,1.7-1.3,2.9-2.3,2.9c-2.9,0-4.7-3.9-10.6-3.9c-5.8,0-10,4-10,8.6
		c0,12.2,26.2,7.2,26.2,24.9c0,10-6.9,17.5-17.5,17.5C794.9,129.6,788.8,126,788.8,123z M858.5,126c0,2.3-1,3.6-2.8,3.6
		s-2.8-1.2-2.8-3.6V79h-10.7c-1.8,0-2.9-1.2-2.9-2.6c0-1.4,1.2-2.6,2.9-2.6h27c1.8,0,2.9,1.2,2.9,2.6c0,1.4-1.2,2.6-2.9,2.6h-10.7
		V126z M889.9,127.1c-0.7,1.4-1.2,2.6-3.1,2.6c-1.6,0-2.5-1-2.5-2.2c0-0.6,0.2-1.6,0.5-2.3l17.8-47.6c0.7-1.8,1.6-4,4.3-4
		c2.8,0,3.6,2.2,4.3,4l17.8,47.6c0.3,0.8,0.5,1.7,0.5,2.3c0,1.2-0.9,2.2-2.5,2.2c-1.9,0-2.6-1.2-3.1-2.6l-3.6-9.9h-26.8L889.9,127.1
		z M907,80.8h-0.2l-11.5,31.3h23.1L907,80.8z M956.5,126c0,2.3-1,3.6-2.8,3.6s-2.8-1.2-2.8-3.6V76.8c0-1.9,0.9-2.9,3.5-2.9h12.2
		c10.9,0,16.7,7.3,16.7,15c0,8.8-5.9,15.6-14.7,15.6h-5.1l19.1,20.4c0.9,0.9,1.1,1.3,1.1,2.4c0,1.4-1.2,2.3-2.5,2.3
		c-0.9,0-1.6-0.3-2.5-1.2l-22.1-23.7L956.5,126L956.5,126z M956.5,99.8h9.7c7.3,0,11.5-3.4,11.5-9.9c0-7.2-4-10.9-11.5-10.9h-9.7
		V99.8z"/>
</g>
</svg>